<svg width="27" height="27" viewBox="0 0 27 27" fill="none" xmlns="http://www.w3.org/2000/svg">
<path d="M10.421 11.5431C11.2433 12.2943 12.3337 12.708 13.4924 12.708C14.6511 12.708 15.7416 12.2943 16.5638 11.5431C17.3835 10.7919 17.8364 9.79333 17.8364 8.73236C17.8376 8.21033 17.7258 7.69324 17.5074 7.21082C17.2891 6.72845 16.9684 6.29028 16.5638 5.92163C15.7416 5.17041 14.6537 4.75671 13.4924 4.75671C12.3312 4.75671 11.2408 5.17041 10.421 5.92163C9.60132 6.67285 9.14856 7.67139 9.14856 8.73236C9.14722 9.25439 9.25903 9.77148 9.47742 10.2539C9.6958 10.7363 10.0165 11.1744 10.421 11.5431Z" fill="current"/>
<path fill-rule="evenodd" clip-rule="evenodd" d="M13.5 27C20.9558 27 27 20.9559 27 13.5C27 6.04413 20.9558 0 13.5 0C6.04419 0 0 6.04413 0 13.5C0 20.9559 6.04419 27 13.5 27ZM19.754 15.0426C19.0077 15.0426 18.3069 15.2136 17.6947 15.5141C17.6628 15.5295 17.6272 15.537 17.5912 15.5358C17.5552 15.5345 17.5203 15.5247 17.4897 15.5072C16.3032 14.8276 14.9269 14.4647 13.4924 14.4647C11.4685 14.4647 9.56592 15.1859 8.13647 16.4965C6.75269 17.7631 5.97095 19.4343 5.92029 21.2188C5.91772 21.3181 5.82666 21.399 5.7179 21.399H4.20251C4.1842 21.399 4.16602 21.3968 4.14856 21.3924C4.14014 21.3903 4.13184 21.3876 4.12378 21.3845C4.09888 21.3749 4.07642 21.3609 4.0575 21.3433C4.04639 21.3328 4.03662 21.3212 4.02856 21.3087C4.02295 21.3 4.01807 21.291 4.01404 21.2817C4.00415 21.2587 3.99939 21.2341 4.00012 21.2095C4.02368 20.1119 4.27612 19.0286 4.7439 18.0174C5.21924 16.9848 5.91016 16.0466 6.77795 15.2552C7.65076 14.4554 8.66528 13.8291 9.79614 13.3922C9.80127 13.3898 9.8064 13.3881 9.81152 13.3864C9.81653 13.3846 9.82153 13.3829 9.82654 13.3807C8.25293 12.3382 7.23083 10.6439 7.23083 8.73236C7.23083 5.56567 10.0315 3 13.4899 3C16.9484 3 19.7516 5.56567 19.7516 8.73236C19.7516 10.6439 18.7295 12.3382 17.1583 13.3807C17.1685 13.3853 17.1786 13.3876 17.1887 13.3922C18.1495 13.7628 19.0361 14.2767 19.8123 14.9131C19.8679 14.9594 19.8325 15.0426 19.7566 15.0426H19.754ZM20.6725 18.2092H22.7976C22.9089 18.2092 23 18.2925 23 18.3942V19.6885C23 19.7903 22.9089 19.8735 22.7976 19.8735H20.6725V21.8151C20.6725 21.8597 20.6549 21.9009 20.6257 21.9329C20.5885 21.9739 20.5325 22 20.4701 22H19.0532C18.942 22 18.8508 21.9168 18.8508 21.8151V19.8735H16.7257C16.6144 19.8735 16.5233 19.7903 16.5233 19.6885V18.3942C16.5233 18.2925 16.6144 18.2092 16.7257 18.2092H18.8508V16.2676C18.8508 16.166 18.942 16.0827 19.0532 16.0827H20.4701C20.5814 16.0827 20.6725 16.166 20.6725 16.2676V18.2092Z" fill="current"/>
</svg>
