<svg width="26" height="30" viewBox="0 0 26 30" fill="none" xmlns="http://www.w3.org/2000/svg">
<path d="M23.918 10.983H23.24V7.71201C23.2394 7.69123 23.2374 7.67051 23.234 7.65001C23.2349 7.5186 23.188 7.39135 23.102 7.29201L17.66 1.07501L17.656 1.07101C17.6234 1.0358 17.5864 1.00489 17.546 0.97901L17.51 0.957009C17.4754 0.937787 17.4389 0.922364 17.401 0.911009L17.371 0.90101C17.3295 0.890651 17.2868 0.88528 17.244 0.88501H3.867C3.256 0.88501 2.76 1.38201 2.76 1.99201V10.982H2.082C1.208 10.982 0.5 11.69 0.5 12.564V20.792C0.5 21.665 1.209 22.374 2.082 22.374H2.76V28.006C2.76 28.616 3.256 29.113 3.867 29.113H22.133C22.743 29.113 23.24 28.616 23.24 28.006V22.374H23.918C24.791 22.374 25.5 21.666 25.5 20.792V12.564C25.5 11.691 24.792 10.983 23.918 10.983ZM3.867 1.99201H16.69V7.65601C16.69 7.96201 16.938 8.20901 17.244 8.20901H22.134V10.982H3.867V1.99201ZM12.149 17.16C10.805 16.68 9.918 15.936 9.918 14.761C9.918 13.382 11.082 12.339 12.977 12.339C13.901 12.339 14.56 12.519 15.04 12.746L14.632 14.209C14.1091 13.9543 13.5346 13.8233 12.953 13.826C12.161 13.826 11.777 14.197 11.777 14.605C11.777 15.121 12.22 15.348 13.276 15.744C14.704 16.272 15.363 17.015 15.363 18.155C15.363 19.511 14.332 20.662 12.113 20.662C11.189 20.662 10.278 20.41 9.822 20.158L10.194 18.659C10.8219 18.9796 11.515 19.152 12.22 19.163C13.06 19.163 13.504 18.814 13.504 18.287C13.504 17.783 13.121 17.496 12.149 17.16ZM2.623 16.608C2.623 13.861 4.59 12.338 7.036 12.338C7.984 12.338 8.703 12.529 9.027 12.686L8.643 14.137C8.15725 13.933 7.6348 13.8309 7.108 13.837C5.669 13.837 4.542 14.712 4.542 16.511C4.542 18.118 5.501 19.138 7.12 19.138C7.684 19.138 8.284 19.031 8.655 18.874L8.92 20.313C8.596 20.468 7.828 20.661 6.857 20.661C4.062 20.662 2.623 18.911 2.623 16.608ZM22.133 27.708H3.867V22.375H22.133V27.708ZM20.655 20.542H18.52L15.93 12.458H17.933L18.916 15.877C19.191 16.848 19.443 17.76 19.635 18.767H19.671C19.8755 17.8061 20.1194 16.8539 20.402 15.913L21.434 12.459H23.376L20.655 20.542Z" fill="current"/>
</svg>
