<svg width="27" height="32" viewBox="0 0 27 27" fill="none" xmlns="http://www.w3.org/2000/svg">
<path d="M10.8 6.75C10.8 4.05 12.24 1.6875 14.4 0H12.6C5.58 0 0 1.51875 0 3.375C0 5.0625 4.68 6.4125 10.8 6.75ZM17.64 14.85C16.02 15.0188 14.22 15.1875 12.6 15.1875C5.58 15.1875 0 13.6688 0 11.8125V16.875C0 18.7313 5.58 20.25 12.6 20.25C19.62 20.25 25.2 18.7313 25.2 16.875V13.5C23.58 14.6812 21.78 15.1875 19.8 15.1875C19.08 15.1875 18.36 15.0188 17.64 14.85ZM12.6 21.9375C5.58 21.9375 0 20.4188 0 18.5625V23.625C0 25.4813 5.58 27 12.6 27C19.62 27 25.2 25.4813 25.2 23.625V18.5625C25.2 20.4188 19.62 21.9375 12.6 21.9375ZM12.6 13.5H14.4C12.6 12.3188 11.34 10.4625 10.98 8.4375C4.86 8.26875 0 6.75 0 5.0625V10.125C0 11.9813 5.58 13.5 12.6 13.5ZM19.8 13.5C23.76 13.5 27 10.4625 27 6.75C27 3.0375 23.76 0 19.8 0C15.84 0 12.6 3.0375 12.6 6.75C12.6 10.4625 15.84 13.5 19.8 13.5ZM18 6.75V1.6875H21.6V6.75H25.2L19.8 11.8125L14.4 6.75H18Z" fill="current"/>
</svg>
