<svg width="32" height="32" viewBox="0 0 27 27" fill="none" xmlns="http://www.w3.org/2000/svg">
<path fill-rule="evenodd" clip-rule="evenodd" d="M13.5 0C6.04432 0 0 6.04432 0 13.5C0 20.9557 6.04432 27 13.5 27C20.9557 27 27 20.9557 27 13.5C27 6.04432 20.9557 0 13.5 0ZM14.7273 18.4091C14.7273 18.7346 14.598 19.0467 14.3678 19.2769C14.1377 19.5071 13.8255 19.6364 13.5 19.6364C13.1745 19.6364 12.8623 19.5071 12.6322 19.2769C12.402 19.0467 12.2727 18.7346 12.2727 18.4091V14.7273H8.59091C8.26542 14.7273 7.95325 14.598 7.7231 14.3678C7.49294 14.1377 7.36364 13.8255 7.36364 13.5C7.36364 13.1745 7.49294 12.8623 7.7231 12.6322C7.95325 12.402 8.26542 12.2727 8.59091 12.2727H12.2727V8.59091C12.2727 8.26542 12.402 7.95325 12.6322 7.7231C12.8623 7.49294 13.1745 7.36364 13.5 7.36364C13.8255 7.36364 14.1377 7.49294 14.3678 7.7231C14.598 7.95325 14.7273 8.26542 14.7273 8.59091V12.2727H18.4091C18.7346 12.2727 19.0467 12.402 19.2769 12.6322C19.5071 12.8623 19.6364 13.1745 19.6364 13.5C19.6364 13.8255 19.5071 14.1377 19.2769 14.3678C19.0467 14.598 18.7346 14.7273 18.4091 14.7273H14.7273V18.4091Z" fill="current"/>
</svg>
