<svg width="15" height="15" viewBox="0 0 15 15" fill="none" xmlns="http://www.w3.org/2000/svg">
<path d="M8.64285 7.5C8.64285 6.89026 8.16667 6.40244 7.57143 6.40244C6.9762 6.40244 6.5 6.89026 6.5 7.5C6.5 8.10974 6.9762 8.59756 7.57143 8.59756C8.16667 8.59756 8.64285 8.10974 8.64285 7.5Z" fill="current" stroke="current"/>
<path d="M7.57143 4.69513C6.9762 4.69513 6.5 4.20731 6.5 3.59756C6.5 2.98779 6.9762 2.5 7.57143 2.5C8.16667 2.5 8.64285 2.98779 8.64285 3.59756C8.64285 4.20731 8.16667 4.69513 7.57143 4.69513Z" fill="current" stroke="current"/>
<path d="M7.57143 12.5C6.9762 12.5 6.5 12.0122 6.5 11.4024C6.5 10.7927 6.9762 10.3049 7.57143 10.3049C8.16667 10.3049 8.64285 10.7927 8.64285 11.4024C8.64285 12.0122 8.16667 12.5 7.57143 12.5Z" fill="current" stroke="current"/>
<path fill-rule="evenodd" clip-rule="evenodd" d="M15 7.5C15 11.6422 11.6421 15 7.5 15C3.35786 15 0 11.6422 0 7.5C0 3.35785 3.35786 0 7.5 0C11.6421 0 15 3.35785 15 7.5ZM14.5 7.5C14.5 11.366 11.366 14.5 7.5 14.5C3.634 14.5 0.5 11.366 0.5 7.5C0.5 3.634 3.634 0.5 7.5 0.5C11.366 0.5 14.5 3.634 14.5 7.5Z" fill="current" stroke="current"/>
</svg>
