<svg width="6" height="20" viewBox="0 0 6 20" fill="none" xmlns="http://www.w3.org/2000/svg">
<path d="M2.99286 7.80488C4.18334 7.80488 5.13572 8.78049 5.13572 10C5.13572 11.2195 4.18334 12.1951 2.99286 12.1951C1.80239 12.1951 0.850006 11.2195 0.850006 10C0.850006 8.78049 1.80239 7.80488 2.99286 7.80488ZM0.850006 2.19512C0.850006 3.41463 1.80239 4.39024 2.99286 4.39024C4.18334 4.39024 5.13572 3.41463 5.13572 2.19512C5.13572 0.97561 4.18334 0 2.99286 0C1.80239 0 0.850006 0.97561 0.850006 2.19512ZM0.850006 17.8049C0.850006 19.0244 1.80239 20 2.99286 20C4.18334 20 5.13572 19.0244 5.13572 17.8049C5.13572 16.5854 4.18334 15.6098 2.99286 15.6098C1.80239 15.6098 0.850006 16.5854 0.850006 17.8049Z" fill="current"/>
</svg>
